# File created by Blade
# Date/Time:  Wed Jan 21 19:14:05 2015
#---------------------------------------------------------
:version 1.10
:name HOM
:units
  mass 1.0
  length 1.000000
  angle deg
:documentation
     Acclaim Skeleton File
:root
   axis xyz
   order TX TY TZ RX RY RZ
   position 0.000000 0.000000 0.000000
   orientation 0 0 0
:bonedata
   begin
      id 1
      name RightUpLeg_dum
      direction -1.000000 0.000000 0.000000
      length 3.693983
      axis 0.0 0.0 0.0 xyz
   end
   begin
      id 2
      name LeftUpLeg_dum
      direction 1.000000 0.000000 0.000000
      length 3.693983
      axis 0.0 0.0 0.0 xyz
   end
   begin
      id 3
      name Spine_dum
      direction 0.000000 1.000000 0.000000
      length 2.392956
      axis 0.0 0.0 0.0 xyz
   end
   begin
      id 4
      name RightUpLeg
      direction 0.000000 -1.000000 0.000000
      length 15.795667
      axis 0.0 0.0 0.0 xyz
      dof rx ry rz
   end
   begin
      id 5
      name RightLeg
      direction 0.000000 -1.000000 0.000000
      length 14.766989
      axis 0.0 0.0 0.0 xyz
      dof rx ry rz
   end
   begin
      id 6
      name RightFoot
      direction 0.000000 -0.258819 0.965926
      length 4.962790
      axis 15.0 0.0 0.0 xyz
      dof rx ry rz
   end
   begin
      id 7
      name RightToeBase
      direction 0.000000 0.000000 1.000000
      length 2.952750
      axis 0.0 0.0 0.0 xyz
      dof rx ry rz
   end
   begin
      id 8
      name LeftUpLeg
      direction 0.000000 -1.000000 0.000000
      length 15.795667
      axis 0.0 0.0 0.0 xyz
      dof rx ry rz
   end
   begin
      id 9
      name LeftLeg
      direction 0.000000 -1.000000 0.000000
      length 14.766989
      axis 0.0 0.0 0.0 xyz
      dof rx ry rz
   end
   begin
      id 10
      name LeftFoot
      direction 0.000000 -0.258819 0.965926
      length 4.962790
      axis 15.0 0.0 0.0 xyz
      dof rx ry rz
   end
   begin
      id 11
      name LeftToeBase
      direction 0.000000 0.000000 1.000000
      length 2.952750
      axis 0.0 0.0 0.0 xyz
      dof rx ry rz
   end
   begin
      id 12
      name Spine
      direction 0.000000 1.000000 0.000000
      length 0.000000
      axis 0.0 0.0 0.0 xyz
      dof rx ry rz
   end
   begin
      id 13
      name Spine_dum1
      direction 0.000000 1.000000 0.000000
      length 13.207411
      axis 0.0 0.0 0.0 xyz
   end
   begin
      id 14
      name Spine_dum2
      direction 0.000000 1.000000 0.000000
      length 13.207411
      axis 0.0 0.0 0.0 xyz
   end
   begin
      id 15
      name Spine_dum3
      direction 0.000000 1.000000 0.000000
      length 19.250100
      axis 0.0 0.0 0.0 xyz
   end
   begin
      id 16
      name RightShoulder
      direction -1.000000 0.000000 0.000000
      length 8.140465
      axis 0.0 0.0 90.0 xyz
      dof rx ry rz
   end
   begin
      id 17
      name RightArm
      direction -1.000000 0.000000 0.000000
      length 10.649840
      axis 0.0 0.0 90.0 xyz
      dof rx ry rz
   end
   begin
      id 18
      name RightForeArm
      direction -1.000000 0.000000 0.000000
      length 8.304624
      axis 0.0 0.0 90.0 xyz
      dof ry rz rx
   end
   begin
      id 19
      name RightHand
      direction -1.000000 0.000000 0.000000
      length 0.000000
      axis 0.0 0.0 90.0 xyz
      dof rx ry rz
   end
   begin
      id 20
      name RightHand_dum1
      direction -1.000000 0.000000 0.000000
      length 3.937000
      axis 0.0 0.0 90.0 xyz
   end
   begin
      id 21
      name RightHand_dum2
      direction 0.000000 0.000000 0.000000
      length 0.000000
      axis 0.0 0.0 90.0 xyz
   end
   begin
      id 22
      name RightHandThumb1
      direction 0.000000 0.000000 1.000000
      length 3.937000
      axis 0.0 0.0 90.0 xyz
      dof rx rz ry
   end
   begin
      id 23
      name LeftShoulder
      direction 1.000000 0.000000 0.000000
      length 8.140465
      axis 0.0 0.0 -90.0 xyz
      dof rx ry rz
   end
   begin
      id 24
      name LeftArm
      direction 1.000000 0.000000 0.000000
      length 10.649840
      axis 0.0 0.0 -90.0 xyz
      dof rx ry rz
   end
   begin
      id 25
      name LeftForeArm
      direction 1.000000 0.000000 0.000000
      length 8.304624
      axis 0.0 0.0 -90.0 xyz
      dof ry rz rx
   end
   begin
      id 26
      name LeftHand
      direction 1.000000 0.000000 0.000000
      length 0.000000
      axis 0.0 0.0 -90.0 xyz
      dof rx ry rz
   end
   begin
      id 27
      name LeftHand_dum1
      direction 1.000000 0.000000 0.000000
      length 3.937000
      axis 0.0 0.0 -90.0 xyz
   end
   begin
      id 28
      name LeftHand_dum2
      direction 0.000000 0.000000 0.000000
      length 0.000000
      axis 0.0 0.0 -90.0 xyz
   end
   begin
      id 29
      name LeftHandThumb1
      direction 0.000000 0.000000 1.000000
      length 3.937000
      axis 0.0 0.0 -90.0 xyz
      dof rx rz ry
   end
   begin
      id 30
      name Head
      direction 0.000000 1.000000 0.000000
      length 4.527550
      axis 0.0 0.0 0.0 xyz
      dof rx ry rz
   end
:hierarchy
   begin
      root RightUpLeg_dum LeftUpLeg_dum Spine_dum
      RightUpLeg_dum RightUpLeg
      LeftUpLeg_dum LeftUpLeg
      Spine_dum Spine
      RightUpLeg RightLeg
      RightLeg RightFoot
      RightFoot RightToeBase
      LeftUpLeg LeftLeg
      LeftLeg LeftFoot
      LeftFoot LeftToeBase
      Spine Spine_dum1 Spine_dum2 Spine_dum3
      Spine_dum1 RightShoulder
      Spine_dum2 LeftShoulder
      Spine_dum3 Head
      RightShoulder RightArm
      RightArm RightForeArm
      RightForeArm RightHand
      RightHand RightHand_dum1 RightHand_dum2
      RightHand_dum2 RightHandThumb1
      LeftShoulder LeftArm
      LeftArm LeftForeArm
      LeftForeArm LeftHand
      LeftHand LeftHand_dum1 LeftHand_dum2
      LeftHand_dum2 LeftHandThumb1
   end

# File created by Blade
# Date/Time:  Wed Jan 21 19:13:57 2015
# Frame Rate: 120.000 fps
#------------------------------------------------------
:FULLY-SPECIFIED
:DEGREES
616
root -6.602803 33.976331 0.017126 29.648419 58.474603 -100.694141
RightUpLeg 10.253422 -5.863305 -27.356012
RightLeg 59.279901 -0.000000 -0.000000
RightFoot 25.213356 -23.027156 20.892715
RightToeBase 43.074852 -0.000000 -0.000000
LeftUpLeg -133.324217 31.643573 -14.856561
LeftLeg -3.477912 -0.000000 0.000000
LeftFoot -6.714140 0.279820 -1.377521
LeftToeBase 6.166465 -0.000000 -0.000000
Spine -73.688981 -0.689319 20.990922
RightShoulder -34.685837 0.786282 -34.387160
RightArm -17.839876 -30.101750 48.354238
RightForeArm -24.526269 -0.000000 6.089518
RightHand 8.324378 -0.000000 19.019375
RightHandThumb1 -24.326973 -0.000000 -32.862282
LeftShoulder -24.071245 -8.392148 54.589132
LeftArm 39.517738 -30.425217 -17.888043
LeftForeArm 22.726549 -0.000000 7.102244
LeftHand -23.417480 -0.000000 11.439148
LeftHandThumb1 -26.253704 0.000000 33.147579
Head -38.700876 32.102206 33.503412
617
root -6.517694 33.977111 -0.000481 29.758950 58.632090 -100.474175
RightUpLeg 10.193733 -5.552559 -27.411759
RightLeg 59.039579 -0.000000 -0.000000
RightFoot 25.282742 -22.958275 20.614946
RightToeBase 42.986624 -0.000000 -0.000000
LeftUpLeg -132.966633 31.645860 -14.442297
LeftLeg -3.188653 -0.000000 0.000000
LeftFoot -6.937472 0.890275 -0.417833
LeftToeBase 5.981507 -0.000000 -0.000000
Spine -73.792797 -0.452038 21.054314
RightShoulder -34.686605 0.856618 -34.469150
RightArm -17.569326 -30.410104 48.152791
RightForeArm -24.681962 -0.000000 6.113549
RightHand 8.306157 -0.000000 19.308433
RightHandThumb1 -24.326973 -0.000000 -32.862282
LeftShoulder -24.225264 -8.318307 54.601437
LeftArm 39.444664 -30.436930 -17.655081
LeftForeArm 22.039666 -0.000000 6.118228
LeftHand -23.072343 0.000000 11.075449
LeftHandThumb1 -26.253704 0.000000 33.147579
Head -38.833738 32.262014 33.383232
618
root -6.427473 33.975301 -0.013521 29.962094 58.785868 -100.140463
RightUpLeg 10.184552 -5.298961 -27.527226
RightLeg 58.790961 -0.000000 -0.000000
RightFoot 25.223416 -22.992205 20.492446
RightToeBase 43.082957 -0.000000 -0.000000
LeftUpLeg -132.630871 31.467316 -14.292062
LeftLeg -3.108691 -0.000000 0.000000
LeftFoot -7.067843 0.889290 0.512701
LeftToeBase 5.855209 -0.000000 -0.000000
Spine -73.918075 -0.279411 21.036582
RightShoulder -34.696046 0.935450 -34.526765
RightArm -17.288259 -30.762783 47.967834
RightForeArm -24.707944 -0.000000 6.014546
RightHand 8.266191 -0.000000 19.448119
RightHandThumb1 -24.326973 -0.000000 -32.862282
LeftShoulder -24.417280 -8.453970 54.789867
LeftArm 39.366381 -30.444294 -17.598485
LeftForeArm 21.773887 -0.000000 5.344549
LeftHand -23.042819 -0.000000 10.854296
LeftHandThumb1 -26.253704 0.000000 33.147579
Head -38.985164 32.395953 33.416847
619
root -6.342819 33.974784 -0.028658 30.240517 59.030600 -99.778396
RightUpLeg 10.204529 -5.209740 -27.667257
RightLeg 58.529549 -0.000000 -0.000000
RightFoot 25.334587 -22.873740 20.251170
RightToeBase 43.185987 -0.000000 -0.000000
LeftUpLeg -132.195119 31.311816 -13.964707
LeftLeg -3.132049 -0.000000 0.000000
LeftFoot -7.312410 1.260764 2.294509
LeftToeBase 6.531180 -0.000000 -0.000000
Spine -74.099623 -0.182265 21.026239
RightShoulder -34.672661 1.045903 -34.602759
RightArm -17.105201 -30.966711 47.791358
RightForeArm -24.764836 -0.000000 5.928006
RightHand 8.220604 -0.000000 19.554740
RightHandThumb1 -24.326973 -0.000000 -32.862282
LeftShoulder -24.587372 -8.586919 55.010662
LeftArm 39.246753 -30.612099 -17.543334
LeftForeArm 21.318799 -0.000000 4.732730
LeftHand -22.931828 -0.000000 10.576354
LeftHandThumb1 -26.253704 0.000000 33.147579
Head -39.187981 32.574249 33.434662
620
root -6.259139 33.974851 -0.038525 30.415797 59.228251 -99.594789
RightUpLeg 10.129250 -5.090404 -27.724748
RightLeg 58.304876 -0.000000 -0.000000
RightFoot 25.462797 -22.862987 20.124658
RightToeBase 43.234092 -0.000000 -0.000000
LeftUpLeg -131.790015 31.274430 -13.602329
LeftLeg -3.228977 -0.000000 0.000000
LeftFoot -7.155470 1.657131 3.176903
LeftToeBase 5.938491 -0.000000 -0.000000
Spine -74.282357 -0.012220 21.055126
RightShoulder -34.641964 1.143527 -34.668134
RightArm -16.943280 -30.943994 47.575027
RightForeArm -25.109280 -0.000000 5.865632
RightHand 8.157876 -0.000000 19.561150
RightHandThumb1 -24.326973 -0.000000 -32.862282
LeftShoulder -24.773436 -8.663855 55.206289
LeftArm 39.140601 -31.058901 -17.498338
LeftForeArm 21.329664 0.000000 4.293086
LeftHand -22.757696 -0.000000 10.281041
LeftHandThumb1 -26.253704 0.000000 33.147579
Head -39.454471 32.744475 33.483216
621
root -6.177646 33.972804 -0.046161 30.606690 59.436098 -99.374492
RightUpLeg 10.119346 -5.091502 -27.850942
RightLeg 58.063114 -0.000000 -0.000000
RightFoot 25.587566 -22.882303 20.042770
RightToeBase 43.157793 -0.000000 -0.000000
LeftUpLeg -131.387702 31.158268 -13.341635
LeftLeg -3.364080 -0.000000 0.000000
LeftFoot -7.003833 1.900953 3.683915
LeftToeBase 5.298652 -0.000000 -0.000000
Spine -74.437587 0.139768 20.996819
RightShoulder -34.716383 1.250648 -34.790124
RightArm -16.834740 -30.832876 47.354035
RightForeArm -25.452923 -0.000000 5.868719
RightHand 8.147574 0.000000 19.511426
RightHandThumb1 -24.326973 -0.000000 -32.862282
LeftShoulder -24.936058 -8.929055 55.425510
LeftArm 38.970233 -31.285254 -17.172590
LeftForeArm 20.905508 0.000000 3.826864
LeftHand -22.787406 -0.000000 10.630225
LeftHandThumb1 -26.253704 0.000000 33.147579
Head -39.840493 32.840461 33.509395
622
root -6.099840 33.971414 -0.052190 30.763098 59.637880 -99.243752
RightUpLeg 10.091096 -5.145392 -27.962797
RightLeg 57.813298 -0.000000 -0.000000
RightFoot 25.591445 -22.952253 20.057914
RightToeBase 43.184961 -0.000000 -0.000000
LeftUpLeg -131.075943 31.014637 -13.160112
LeftLeg -3.547419 -0.000000 0.000000
LeftFoot -6.809382 1.968700 4.164341
LeftToeBase 4.695705 -0.000000 -0.000000
Spine -74.587902 0.318709 20.956134
RightShoulder -34.748289 1.295744 -34.839396
RightArm -16.812485 -30.303629 47.015948
RightForeArm -26.013015 0.000000 6.086939
RightHand 7.999963 0.000000 19.517086
RightHandThumb1 -24.326973 -0.000000 -32.862282
LeftShoulder -25.126403 -9.178611 55.603739
LeftArm 38.801287 -31.657994 -16.754765
LeftForeArm 20.687794 -0.000000 3.558586
LeftHand -22.874832 -0.000000 10.518145
LeftHandThumb1 -26.253704 0.000000 33.147579
Head -40.349938 32.996383 33.457013
623
root -6.027933 33.968415 -0.059253 30.868926 59.896540 -99.194222
RightUpLeg 10.126531 -5.322563 -28.067217
RightLeg 57.489564 -0.000000 -0.000000
RightFoot 25.557756 -23.022598 20.142090
RightToeBase 43.198763 -0.000000 -0.000000
LeftUpLeg -130.828161 30.789379 -12.990527
LeftLeg -3.736026 -0.000000 0.000000
LeftFoot -6.597059 1.918341 4.589226
LeftToeBase 4.123180 -0.000000 -0.000000
Spine -74.739855 0.475181 20.949982
RightShoulder -34.761063 1.490402 -34.955952
RightArm -17.066518 -29.670235 46.647052
RightForeArm -26.821254 -0.000000 6.537746
RightHand 7.723119 -0.000000 19.694244
RightHandThumb1 -24.326973 -0.000000 -32.862282
LeftShoulder -25.326517 -9.436444 55.814499
LeftArm 38.601088 -32.075245 -16.294006
LeftForeArm 20.541320 -0.000000 3.379263
LeftHand -22.952088 -0.000000 10.614387
LeftHandThumb1 -26.253704 0.000000 33.147579
Head -40.977925 33.133487 33.349168
624
root -5.963216 33.966882 -0.062857 30.903507 60.116784 -99.249436
RightUpLeg 10.148006 -5.485792 -28.155571
RightLeg 57.153399 -0.000000 -0.000000
RightFoot 25.515173 -23.002847 20.154290
RightToeBase 43.299738 -0.000000 -0.000000
LeftUpLeg -130.670497 30.600270 -12.873888
LeftLeg -3.930102 -0.000000 0.000000
LeftFoot -6.391856 1.788388 4.870423
LeftToeBase 3.669741 -0.000000 -0.000000
Spine -74.855667 0.669949 20.978606
RightShoulder -34.823111 1.602785 -35.064193
RightArm -17.187950 -29.026915 46.277773
RightForeArm -27.517862 0.000000 6.947327
RightHand 7.495555 -0.000000 19.897266
RightHandThumb1 -24.326973 -0.000000 -32.862282
LeftShoulder -25.476625 -9.900213 56.207674
LeftArm 38.051725 -32.299127 -15.671429
LeftForeArm 20.430765 -0.000000 3.406499
LeftHand -23.109168 -0.000000 10.984085
LeftHandThumb1 -26.253704 0.000000 33.147579
Head -41.676909 33.226799 33.213413
625
root -5.901171 33.964991 -0.065266 30.921683 60.380491 -99.336147
RightUpLeg 10.246990 -5.770811 -28.259450
RightLeg 56.742215 -0.000000 -0.000000
RightFoot 25.511271 -22.885817 20.082405
RightToeBase 43.266493 -0.000000 -0.000000
LeftUpLeg -130.506614 30.391060 -12.721044
LeftLeg -4.154227 -0.000000 0.000000
LeftFoot -6.157571 1.630189 5.034093
LeftToeBase 3.305139 -0.000000 -0.000000
Spine -74.975361 0.833966 21.001139
RightShoulder -34.927962 1.737903 -35.194410
RightArm -17.374613 -28.377085 45.891773
RightForeArm -28.292286 -0.000000 7.464372
RightHand 7.218247 -0.000000 20.158217
RightHandThumb1 -24.326973 -0.000000 -32.862282
LeftShoulder -25.698032 -10.186028 56.362731
LeftArm 37.823589 -32.772311 -14.920912
LeftForeArm 20.283388 -0.000000 3.358447
LeftHand -23.281165 -0.000000 11.567353
LeftHandThumb1 -26.253704 0.000000 33.147579
Head -42.404988 33.320947 33.079423
626
root -5.844211 33.962642 -0.066608 30.918185 60.656926 -99.466656
RightUpLeg 10.367997 -6.112204 -28.374165
RightLeg 56.300209 -0.000000 -0.000000
RightFoot 25.520605 -22.793229 20.119205
RightToeBase 43.246640 -0.000000 -0.000000
LeftUpLeg -130.420504 30.113870 -12.647411
LeftLeg -4.380257 -0.000000 0.000000
LeftFoot -5.939769 1.341094 5.077146
LeftToeBase 3.020580 -0.000000 -0.000000
Spine -75.083586 0.999916 21.025444
RightShoulder -35.090484 1.829168 -35.326525
RightArm -17.512855 -27.663573 45.461965
RightForeArm -29.211603 -0.000000 8.060903
RightHand 6.876834 -0.000000 20.607908
RightHandThumb1 -24.326973 -0.000000 -32.862282
LeftShoulder -25.903515 -10.566163 56.469287
LeftArm 37.600671 -33.335971 -14.068721
LeftForeArm 20.236892 0.000000 3.384816
LeftHand -23.570222 -0.000000 12.109880
LeftHandThumb1 -26.253704 0.000000 33.147579
Head -43.129814 33.381311 32.942634
627
root -5.795705 33.959754 -0.066468 30.899396 60.966144 -99.593293
RightUpLeg 10.616103 -6.495669 -28.514541
RightLeg 55.802730 -0.000000 -0.000000
RightFoot 25.467836 -22.518493 20.077538
RightToeBase 43.157761 -0.000000 -0.000000
LeftUpLeg -130.308047 29.799596 -12.542824
LeftLeg -4.646051 -0.000000 0.000000
LeftFoot -5.619337 1.112960 5.240581
LeftToeBase 2.534475 -0.000000 -0.000000
Spine -75.179718 1.092009 21.062070
RightShoulder -35.234432 1.916113 -35.447078
RightArm -17.656932 -27.262994 45.126765
RightForeArm -29.811428 -0.000000 8.576633
RightHand 6.559995 -0.000000 20.842572
RightHandThumb1 -24.326973 -0.000000 -32.862282
LeftShoulder -26.149878 -10.930545 56.638096
LeftArm 37.448249 -33.866942 -13.233513
LeftForeArm 20.129683 -0.000000 3.477181
LeftHand -23.754904 -0.000000 12.964169
LeftHandThumb1 -26.253704 0.000000 33.147579
Head -43.794599 33.415532 32.897437
